<?xml version="1.0" encoding="utf-8"?>
<!-- Generator: Adobe Illustrator 19.0.0, SVG Export Plug-In . SVG Version: 6.00 Build 0)  -->
<svg version="1.1" id="Layer_1" xmlns="http://www.w3.org/2000/svg" xmlns:xlink="http://www.w3.org/1999/xlink" x="0px" y="0px"
	 viewBox="-859 461 200 160" style="enable-background:new -859 461 200 160;" xml:space="preserve">
<style type="text/css">
	.st0{opacity:0;fill:#272829;}
	.st1{fill:#1E2A5A;stroke:#FF0000;stroke-width:3;stroke-miterlimit:10;}
	.st2{fill:#FFFFFF;stroke:#FFFFFF;stroke-miterlimit:10;}
	.st3{fill:#FFFFFF;stroke:#000000;stroke-width:0.25;stroke-miterlimit:10;}
	.st4{fill:#F9CF19;stroke:#050505;stroke-width:0.25;stroke-miterlimit:10;}
	.st5{stroke:#050505;stroke-width:0.25;stroke-miterlimit:10;}
	.st6{fill:#FCFCFC;stroke:#050505;stroke-width:0.25;stroke-miterlimit:10;}
	.st7{fill:#E2BD20;stroke:#050505;stroke-width:0.25;stroke-miterlimit:10;}
	.st8{fill:#F0491C;stroke:#050505;stroke-width:0.25;stroke-miterlimit:10;}
</style>
<rect id="XMLID_73_" x="-859" y="461" class="st0" width="200" height="160"/>
<g id="XMLID_76_">
	<circle id="XMLID_308_" class="st1" cx="-759.8" cy="524.1" r="58.6"/>
	<g id="XMLID_302_">
		<path id="XMLID_119_" class="st2" d="M-682.9,562.4c-34.5,66.1-119.4,66-153.9,0c7.8-3.3,11.7-5,19.6-8.4
			c27,49.1,87.6,49.3,114.7,0C-694.6,557.4-690.7,559-682.9,562.4z"/>
	</g>
	<path id="XMLID_137_" class="st2" d="M-821.9,529.4c-4.3,4.6-8.6,9.2-12.8,13.9c-4.3-4.6-8.6-9.3-12.9-13.9
		c-0.1,15.6-0.1,31.1-0.2,46.7c2.8-5.9,5.6-11.8,8.5-17.7c5.8-2.2,11.7-4.3,17.5-6.5C-821.8,544.4-821.9,536.9-821.9,529.4z"/>
	<path id="XMLID_162_" class="st2" d="M-826.8,584.1c-6.5,0-13.1,0-19.6,0.1c1.5-2.7,2.9-5.8,4.3-9c1.4-3.3,2.6-6.4,3.6-9.4
		c1.3,2.8,3,6,5.1,9.3C-831.2,578.5-829,581.5-826.8,584.1z"/>
	<g id="XMLID_48_">
		<polygon id="XMLID_56_" class="st3" points="-801.8,528 -805.8,525.9 -809.7,528 -809,523.6 -812.2,520.5 -807.7,519.8 
			-805.8,515.8 -803.8,519.8 -799.4,520.5 -802.6,523.6 		"/>
		<polygon id="XMLID_72_" class="st3" points="-798.6,545.1 -802.5,543.1 -806.5,545.1 -805.7,540.7 -808.9,537.6 -804.5,537 
			-802.5,532.9 -800.5,537 -796.1,537.6 -799.3,540.7 		"/>
		<polygon id="XMLID_71_" class="st3" points="-789.6,559.4 -793.6,557.3 -797.6,559.4 -796.8,555 -800,551.9 -795.6,551.2 
			-793.6,547.2 -791.6,551.2 -787.2,551.9 -790.4,555 		"/>
		<polygon id="XMLID_70_" class="st3" points="-776.3,569.6 -780.2,567.5 -784.2,569.5 -783.5,565.1 -786.7,562 -782.2,561.4 
			-780.2,557.4 -778.3,561.4 -773.8,562 -777,565.1 		"/>
		<polygon id="XMLID_69_" class="st3" points="-759.8,574.3 -763.7,572.3 -767.7,574.3 -766.9,569.9 -770.1,566.8 -765.7,566.2 
			-763.7,562.1 -761.7,566.2 -757.3,566.8 -760.5,569.9 		"/>
		<polygon id="XMLID_68_" class="st3" points="-742.2,572.7 -746.2,570.6 -750.1,572.7 -749.4,568.3 -752.6,565.1 -748.1,564.5 
			-746.2,560.5 -744.2,564.5 -739.8,565.2 -743,568.3 		"/>
		<polygon id="XMLID_67_" class="st3" points="-727.1,565.1 -731.1,563 -735,565.1 -734.3,560.6 -737.5,557.5 -733.1,556.9 
			-731.1,552.9 -729.1,556.9 -724.7,557.5 -727.9,560.7 		"/>
		<polygon id="XMLID_66_" class="st3" points="-715.8,552.7 -719.8,550.6 -723.8,552.7 -723,548.3 -726.2,545.2 -721.8,544.5 
			-719.8,540.5 -717.8,544.5 -713.4,545.2 -716.6,548.3 		"/>
		<polygon id="XMLID_65_" class="st3" points="-709.6,536.9 -713.5,534.8 -717.5,536.8 -716.7,532.4 -719.9,529.3 -715.5,528.7 
			-713.5,524.7 -711.6,528.7 -707.1,529.3 -710.3,532.4 		"/>
		<polygon id="XMLID_64_" class="st3" points="-709.6,519.2 -713.5,517.1 -717.5,519.2 -716.7,514.8 -719.9,511.6 -715.5,511 
			-713.5,507 -711.6,511 -707.1,511.6 -710.3,514.8 		"/>
		<polygon id="XMLID_63_" class="st3" points="-715.8,503.3 -719.8,501.2 -723.8,503.3 -723,498.9 -726.2,495.8 -721.8,495.1 
			-719.8,491.1 -717.8,495.1 -713.4,495.8 -716.6,498.9 		"/>
		<polygon id="XMLID_62_" class="st3" points="-727.1,491 -731.1,488.9 -735,491 -734.3,486.5 -737.5,483.4 -733.1,482.8 
			-731.1,478.8 -729.1,482.8 -724.7,483.4 -727.9,486.6 		"/>
		<polygon id="XMLID_61_" class="st3" points="-742.2,483.3 -746.2,481.3 -750.1,483.3 -749.4,478.9 -752.6,475.8 -748.1,475.2 
			-746.2,471.1 -744.2,475.2 -739.8,475.8 -743,478.9 		"/>
		<polygon id="XMLID_60_" class="st3" points="-759.8,481.7 -763.7,479.6 -767.7,481.7 -766.9,477.3 -770.1,474.1 -765.7,473.5 
			-763.7,469.5 -761.7,473.5 -757.3,474.2 -760.5,477.3 		"/>
		<polygon id="XMLID_59_" class="st3" points="-776.3,486.5 -780.2,484.4 -784.2,486.5 -783.5,482.1 -786.7,478.9 -782.2,478.3 
			-780.2,474.3 -778.3,478.3 -773.8,479 -777,482.1 		"/>
		<polygon id="XMLID_58_" class="st3" points="-789.6,496.6 -793.6,494.5 -797.6,496.6 -796.8,492.2 -800,489.1 -795.6,488.4 
			-793.6,484.4 -791.6,488.4 -787.2,489.1 -790.4,492.2 		"/>
		<polygon id="XMLID_57_" class="st3" points="-798.6,510.9 -802.5,508.8 -806.5,510.9 -805.7,506.5 -808.9,503.3 -804.5,502.7 
			-802.5,498.7 -800.5,502.7 -796.1,503.4 -799.3,506.5 		"/>
		<polygon id="XMLID_55_" class="st3" points="-801.8,528 -805.8,525.9 -809.7,528 -809,523.6 -812.2,520.5 -807.7,519.8 
			-805.8,515.8 -803.8,519.8 -799.4,520.5 -802.6,523.6 		"/>
	</g>
	<g id="XMLID_40_">
		<g id="XMLID_42_">
			<path id="XMLID_47_" class="st4" d="M-779.2,524.7c1.7,0.1,3-0.7,3.5-0.9c3.1-1.7,7.8-2.7,9.8-3.1c4.7-0.8,8.3-0.2,8.4-0.8
				c0-0.3-0.5-0.5-1-0.7c-2.7-1.4-5.9-4.1-7.2-7.3c-0.8-2-0.8-3.9-0.7-4.4c0-1.4,0.1-2.4,0.6-3.6c0.3-0.8,0.8-1.7,0.5-2
				c-0.2-0.2-0.4,0-0.9-0.2c-0.4-0.1-0.8-0.3-1.3-0.7c-0.4-0.3-1.1-0.9-1-1.1c0.1-0.1,0.3,0,0.8,0.1c0.8,0.1,1.8,0,1.9-0.3
				c0-0.2-0.4-0.3-1.1-0.9c-0.3-0.2-0.8-0.7-1.3-1.5c-0.5-0.8-0.7-1.8-0.5-1.9c0.1-0.1,0.2,0.2,0.7,0.4c0.4,0.2,0.7,0.3,1.2,0.5
				c0.4,0.1,1,0.3,1.9,0.3c1,0.1,1.5,0.1,2-0.1s0.7-0.5,1.1-0.9c0.5-0.5,1.1-0.9,2.4-1.6c1.4-0.8,3-1.7,5-2.2c2.9-0.7,5.3-0.2,6.5,0
				c3.3,0.7,5.4,2.1,6.1,2.6c3,2.2,4.4,4.8,4.8,5.5c0.9,1.7,1.2,3.3,1.4,4.2c0.6,3.7,0.1,9.6-3,11.7c-0.5,0.3-1.6,0.9-1.9,2.1
				c0,0.1-0.3,1.1,0.2,2.1c0.3,0.6,0.9,1,1,1.1c1.9,1.2,4.3,4.7,4.9,5.6c2.2,3.3,2.2,6.9,2.2,8.4c0,1.6,0,3.9-1.2,6.4
				c-1.7,3.4-4.7,5-6.8,6.1c-3.5,1.8-6.4,2.1-12.1,2.6c-3.9,0.4-8.4,0.7-14.3-0.1c-3.8-0.6-6.5-1-9.8-2.7c-1-0.5-5.2-2.7-8.6-7.3
				c-2.9-4-4.3-8.4-4.6-9.6c0-0.2-0.1-0.9-0.5-1.8c-0.2-0.5-0.4-0.7-0.7-1.2c-0.5-0.9-0.7-1.6-0.9-2.2c-0.7-2.6-0.2-5.6,0.1-5.6
				c0,0,0.1,0.2,0.3,0.6c0.2,0.4,0.3,0.7,0.3,0.7c0.2,0.6,0.8,1.5,1.6,2.3c0.5,0.5,1.3,1.3,1.4,1.1c0.1-0.1-0.7-1-1.5-2.6
				c-0.1-0.3-1-2-0.8-4.1c0-0.5,0.1-0.8,0.2-0.8c0.2,0,0.4,0.4,0.8,1c0.6,0.9,1.2,1.5,2.2,2.4c0.3,0.3,0.7,0.6,1.4,1.2
				c1.2,0.9,1.7,1.4,2.6,1.9c0.8,0.5,1.5,0.9,2.5,1.2C-780.9,524.4-780.1,524.6-779.2,524.7z"/>
			<path id="XMLID_45_" class="st5" d="M-745.2,501.1c-0.7-0.1-1-0.2-1.1-0.1c-0.9,0.5-0.6,4.7,1.1,5.2c0.8,0.2,1.5-0.4,1.6-0.5
				c1.2-1.1,0.9-3.5-0.2-4.2C-744,501.3-744.4,501.3-745.2,501.1z"/>
			<path id="XMLID_44_" class="st6" d="M-744.7,502.1c-0.4,0.1-0.6,0.8-0.6,1.1c0,0.6,0.3,1.4,0.9,1.5c0.2,0.1,0.6,0,0.8-0.2
				c0.5-0.4,0.3-1.5-0.2-2.1C-743.9,502.4-744.3,502-744.7,502.1z"/>
			<path id="XMLID_43_" class="st7" d="M-751.7,526c-1.8-0.2-3.1,0.2-5.6,1c-2.3,0.7-2.4,1.1-5.4,2.2c-3.2,1.2-5.1,1.9-7.1,1.5
				c-2.2-0.4-3.7-2.1-4.1-1.6c0,0-0.1,0.2,0.1,0.8c0.5,1.5,1.3,2.5,1.4,2.7c0.7,0.8,1.2,1.5,2.1,1.9c1.6,0.9,3.1,0.6,3.1,0.7
				c0,0.1-1.1,0.4-2.4,0.1c-1.9-0.4-2.8-2-3.1-1.7c-0.2,0.2,0.2,1,0.4,1.6c0.3,0.7,0.6,1.4,1.3,2c0.8,0.7,1.7,1,2.3,1.2
				c1.3,0.4,2.2,0.2,2.2,0.3c0,0.1-1.3,0.6-2.6,0.2c-1.3-0.4-2-1.4-2.2-1.2s0.5,1.4,0.7,1.7c3.8,5.7,14.9,5.2,15,5.2l0,0
				c3.6-0.2,7.9-0.4,10.6-3.7c0.5-0.6,2.1-2.8,2-5.9c-0.1-2.6-1.5-4.4-2.2-5.3C-745.9,529.1-748.1,526.5-751.7,526z"/>
		</g>
		<path id="XMLID_41_" class="st8" d="M-736,504.1c0.4,0.1,0.5,0.6,0.9,1.1c0.7,0.9,1.7,1.1,2.1,1.2c0.8,0.2,1.4,0.1,2.3-0.1
			c0.8-0.1,1.3-0.3,2-0.6c0.7-0.4,0.9-0.7,1.2-0.6c0.5,0.1,0.6,1.1,0.6,1.5c0.1,0.4,0.2,1.7-0.5,3c-0.2,0.5-0.5,0.8-0.7,1
			c-0.3,0.4-0.7,0.8-1.2,1.2c-0.4,0.3-0.7,0.4-0.7,0.5c0,0.2,0.3,0.3,0.7,0.7c0.2,0.2,0.8,0.8,0.7,1.4c0,0.5-0.5,0.8-0.5,0.8
			c-0.1,0.1-0.4,0.2-1,0.2c-0.6,0-0.8-0.2-1.5-0.4c-1.1-0.3-1.9-0.4-2.2-0.4c-0.6,0-1,0-1.1,0c-1.5,0.1-1.9,0.6-3,0.7
			c-0.4,0-2.1,0.2-2.7-0.7c-0.6-0.8,0.1-2.1,0.1-2.2c0.4-0.7,0.7-0.6,1.6-1.6c0.5-0.6,0.9-1.1,1.2-1.8c0.2-0.4,0.2-1,0.4-2.1
			c0.1-1.1,0.1-1.5,0.5-2C-736.8,504.5-736.4,504-736,504.1z"/>
	</g>
	<g id="XMLID_46_">
		<g id="XMLID_392_">
			<path id="XMLID_420_" d="M-813,567.6c-3.3,2.6-6.5,5.2-9.8,7.9c-1.3-1.7-2.6-3.4-3.8-5.2c-0.2-0.3-0.4-0.6-0.4-0.8
				c-0.1-0.2,0-0.4,0.2-0.5s0.4,0,0.7,0.3c0.3,0.3,0.5,0.4,0.6,0.4s0.3-0.1,0.6-0.3c2.4-1.7,4.8-3.3,7.3-5c0.1-0.1,0.3-0.2,0.4-0.3
				c0.1-0.1,0.1-0.3,0-0.5c-0.1-0.3-0.1-0.5-0.2-0.6c0-0.1,0-0.3,0.2-0.4c0.2-0.1,0.3-0.1,0.5,0c0.2,0.1,0.3,0.3,0.5,0.5
				C-815.2,564.7-814.1,566.2-813,567.6z M-813.2,568.9c0.3-0.2,0.5-0.4,0.8-0.6c1.2,1.5,1.9,3,2,4.7c0.1,1.7-0.5,3.3-1.9,4.7
				c-1.3,1.3-2.9,1.9-4.8,1.6c-1.9-0.3-3.6-1.4-5-3.1c0.3-0.2,0.5-0.4,0.8-0.6c0.5,0.5,0.9,0.7,1.3,0.6c0.4-0.1,0.7-0.3,1.1-0.5
				c1.8-1.6,3.6-3.1,5.4-4.7c0.3-0.3,0.6-0.6,0.7-1C-812.7,569.8-812.8,569.4-813.2,568.9z"/>
			<path id="XMLID_417_" d="M-808.2,588.7c-0.2,0.3-0.4,0.5-0.6,0.8c-1-0.7-1.7-1.4-2.1-1.8c-0.5-0.5-1-1.2-1.4-2
				c-0.4-0.8-0.6-1.5-0.6-1.9c0-0.5,0.2-0.9,0.5-1.2c1.8-2,3.6-3.9,5.4-5.9c0-0.1,0.1-0.1,0.1-0.2c0.1-0.2,0.2-0.3,0.2-0.4
				c0-0.1-0.1-0.3-0.3-0.6s-0.2-0.5,0-0.7c0.1-0.1,0.3-0.2,0.5-0.1c0.2,0.1,0.3,0.2,0.4,0.2c1.4,1.3,2.9,2.6,4.4,3.8
				c0.2,0.1,0.3,0.3,0.3,0.4c0.1,0.2,0,0.3-0.1,0.4c-0.1,0.2-0.3,0.2-0.6,0.1c-0.3-0.1-0.5-0.2-0.6-0.1c-0.1,0-0.3,0.2-0.5,0.4
				c-1.7,2.1-3.3,4.2-5,6.3c-0.1,0.1-0.2,0.3-0.3,0.4C-809,587.3-808.8,588-808.2,588.7z M-803.2,588.8c1.2-1.7,2.4-3.5,3.5-5.2
				c0.4-0.8,0.4-1.4,0.1-1.8c-0.3-0.4-0.3-0.7-0.2-0.9c0.1-0.2,0.3-0.2,0.5-0.1c0.2,0.1,0.4,0.2,0.6,0.4c0.6,0.4,1.3,0.9,1.9,1.3
				c0.3,0.2,0.5,0.4,0.6,0.5c0.1,0.1,0.1,0.3,0,0.5c-0.1,0.2-0.4,0.2-0.9,0.1c-0.5-0.1-1,0.2-1.6,0.8c-1.2,1.8-2.3,3.5-3.5,5.3
				c-0.7,1-1.6,1.6-2.8,1.5c-1.2,0-2.2-0.4-3-1c0.2-0.3,0.4-0.5,0.6-0.8c1,0.4,1.8,0.6,2.5,0.5
				C-804.2,589.8-803.6,589.4-803.2,588.8z"/>
			<path id="XMLID_413_" d="M-794.3,597.1c-0.1,0.3-0.3,0.6-0.4,0.9c-2.2-1.1-3.6-2.5-4.1-4.2s-0.3-3.3,0.7-4.8
				c1-1.7,2.4-2.7,4.1-3.2s3.3-0.4,5,0.5c-0.1,0.3-0.3,0.6-0.4,0.9c-0.5-0.1-0.8-0.1-1.1,0.1s-0.5,0.4-0.7,0.8
				c-1.2,2.4-2.4,4.7-3.6,7.1c-0.2,0.4-0.2,0.7-0.1,1.1C-795,596.5-794.8,596.9-794.3,597.1z M-788.8,587.5c0.1-0.3,0.3-0.6,0.4-0.9
				c0.2,0.1,0.6,0.4,1.2,0.9c0.6,0.5,0.9,0.8,1.1,0.8c0.2,0.1,0.4,0,0.6-0.1c0.2-0.2,0.4-0.2,0.6-0.1c0.2,0.1,0.4,0.2,0.4,0.4
				s0,0.3,0,0.4c-0.5,1.2-0.9,2.4-1.4,3.6c-0.1,0.2-0.2,0.3-0.3,0.3c-0.1,0.1-0.3,0.1-0.5,0c-0.2-0.1-0.3-0.2-0.4-0.3
				c-0.1-0.2-0.1-0.5,0-1c0.1-0.5,0-1.2-0.2-2C-787.6,588.7-788.1,588-788.8,587.5z M-788.2,596.6c0.2,0.1,0.3,0.2,0.4,0.3
				c0.1,0.1,0.1,0.3,0,0.4c-0.2,0.6-1,1.1-2.4,1.4c-1.4,0.3-2.6,0.1-3.7-0.3c0.1-0.3,0.3-0.6,0.4-0.9c0.9,0.3,1.8,0.3,2.6,0.2
				c0.8-0.1,1.3-0.4,1.6-0.7s0.5-0.5,0.6-0.5C-788.5,596.5-788.4,596.6-788.2,596.6z"/>
			<path id="XMLID_410_" d="M-777.5,592.7c-0.7,2.8-1.5,5.7-2.2,8.5c0,0.2-0.1,0.4-0.1,0.6c0,0.1,0.2,0.3,0.6,0.5
				c0.4,0.2,0.5,0.4,0.5,0.6c0,0.2-0.2,0.3-0.4,0.3c-0.2,0-0.4,0-0.6,0c-2.1-0.5-4.2-1.1-6.3-1.8c-0.2-0.1-0.4-0.2-0.5-0.3
				c-0.1-0.1-0.2-0.3-0.1-0.4c0.1-0.2,0.3-0.3,0.7-0.3c0.4,0,0.6,0,0.7,0c0.1-0.1,0.2-0.2,0.3-0.6c0.9-2.8,1.9-5.6,2.8-8.3
				c0-0.1,0-0.1,0.1-0.2c0.1-0.2,0.1-0.4,0-0.4c0-0.1-0.2-0.2-0.4-0.4c-0.3-0.2-0.3-0.4-0.3-0.6c0.1-0.2,0.2-0.3,0.4-0.3
				s0.3,0,0.5,0.1c1.7,0.6,3.5,1.1,5.3,1.6c0.2,0,0.3,0.1,0.5,0.3c0.1,0.1,0.2,0.3,0.1,0.4c-0.1,0.2-0.2,0.3-0.5,0.3
				c-0.3,0-0.5,0.1-0.6,0.1C-777.3,592.2-777.4,592.4-777.5,592.7z M-773.6,595.4c0.6,2.5,1.4,5,2.2,7.6c0.1,0.2,0.2,0.4,0.2,0.6
				c0.1,0.1,0.2,0.2,0.4,0.3c0.1,0.1,0.3,0.2,0.4,0.3c0.1,0.1,0.1,0.2,0.1,0.3c0,0.2-0.1,0.3-0.3,0.3c-0.2,0-0.3,0-0.4,0
				s-0.3,0-0.5-0.1c-1.9-0.3-3.8-0.6-5.7-1c-0.4-0.1-0.7-0.2-0.9-0.3c-0.2-0.1-0.3-0.3-0.2-0.5c0-0.2,0.2-0.3,0.6-0.4
				c0.3-0.1,0.5-0.1,0.5-0.2c0-0.1,0-0.2,0-0.3c0-0.1,0-0.2-0.1-0.3c-0.2-1.1-0.4-2.2-0.6-3.3c0-0.2,0-0.4-0.1-0.6
				c0-0.1,0-0.2,0-0.4c0-0.1,0.1-0.2,0.2-0.3c0.1-0.1,0.2-0.2,0.5-0.4c1-0.7,2-1.4,2.9-2.2c0.2-0.1,0.3-0.3,0.5-0.4
				c0.1-0.1,0.2-0.3,0.2-0.5s0-0.4-0.1-0.6c-0.1-0.2-0.2-0.3-0.4-0.4c-0.2-0.1-0.3-0.2-0.3-0.2c-0.1,0-0.1-0.1-0.2-0.2
				c-0.1-0.1-0.1-0.2,0-0.3c0-0.2,0.2-0.3,0.4-0.4c0.2,0,0.4,0,0.7,0.1c1.1,0.2,2.2,0.4,3.3,0.6c0.3,0,0.6,0.1,0.7,0.2
				c0.2,0.1,0.3,0.3,0.2,0.5c0,0.2-0.1,0.3-0.3,0.3c-0.1,0.1-0.4,0.2-0.9,0.2c-0.4,0.1-0.8,0.2-1.1,0.4c-0.3,0.2-0.8,0.6-1.5,1.1
				C-773.3,595.2-773.5,595.3-773.6,595.4z"/>
			<path id="XMLID_407_" d="M-764.8,603.6c0.1-1,0.1-2,0.2-3c-1-2.1-1.8-4.1-2.6-6.2c0-0.1-0.1-0.2-0.1-0.4c0-0.1-0.2-0.2-0.3-0.4
				c-0.1-0.1-0.2-0.2-0.3-0.3c-0.1-0.1-0.1-0.2-0.1-0.3c0-0.2,0.1-0.3,0.3-0.4c0.2,0,0.4,0,0.8,0c1.6,0.2,3.2,0.3,4.8,0.3
				c0.4,0,0.7,0.1,0.8,0.1c0.1,0.1,0.2,0.2,0.2,0.4c0,0.1,0,0.2-0.1,0.3c-0.1,0.1-0.2,0.2-0.3,0.2c-0.3,0.1-0.4,0.2-0.4,0.4
				c0,0.1,0,0.2,0.1,0.3c0,0.1,0.1,0.2,0.1,0.4c0.8,1.6,1.6,3.2,2.5,4.8c0,1.3,0,2.6,0,3.9c0,0.2,0,0.4,0,0.6c0,0.1,0.2,0.2,0.6,0.3
				c0.4,0.1,0.6,0.2,0.6,0.5c0,0.2-0.1,0.3-0.3,0.4c-0.2,0.1-0.4,0.1-0.5,0.1c-2.2,0-4.3,0-6.5-0.2c-0.2,0-0.4-0.1-0.6-0.2
				c-0.2-0.1-0.2-0.2-0.2-0.4c0-0.2,0.2-0.4,0.6-0.4c0.4-0.1,0.6-0.1,0.6-0.2C-764.8,604.1-764.8,603.9-764.8,603.6z M-758.9,598.9
				c-0.2-0.4-0.4-0.8-0.7-1.2c0.4-0.7,0.7-1.3,1-2c0.1-0.1,0.1-0.3,0.2-0.4c0.1-0.1,0.1-0.3,0.1-0.5c0-0.4-0.2-0.6-0.7-0.8
				c-0.4-0.1-0.7-0.3-0.7-0.5s0.1-0.4,0.3-0.4c0.2-0.1,0.4-0.1,0.7-0.1c0.1,0,0.2,0,0.3,0c0.7,0,1.4,0,2.1-0.1c0.3,0,0.5,0,0.7,0
				c0.2,0.1,0.3,0.2,0.3,0.4c0,0.1,0,0.2-0.1,0.3c-0.1,0.1-0.3,0.2-0.5,0.3c-0.3,0.1-0.5,0.3-0.6,0.4c-0.2,0.2-0.3,0.4-0.5,0.8
				C-757.6,596.5-758.2,597.7-758.9,598.9z"/>
			<path id="XMLID_402_" d="M-743.4,596.9c0.3,0.2,0.5,0.5,0.8,0.7c-0.1,0.2-0.2,0.4-0.2,0.6s0.1,0.3,0.3,0.4
				c0.9,0.8,1.9,1.7,2.9,2.5c0.3,0.2,0.5,0.3,0.7,0.4c0.2,0,0.4,0,0.6-0.1c0.1,0,0.2-0.1,0.3-0.1c0.3,0.2,0.6,0.4,0.9,0.6
				c-0.2,0.2-0.5,0.4-0.8,0.5c-0.3,0.2-0.6,0.3-1,0.6c-0.4,0.2-0.9,0.4-1.4,0.5c-1.5,0.4-2.9,0.3-4-0.3c-1.2-0.5-1.8-1.3-2-2.2
				c-0.1-0.8,0.1-1.6,0.7-2.3C-745.1,598-744.3,597.4-743.4,596.9z M-735.7,602c-2.5-1.8-4.9-3.7-7.1-5.7c-0.7-0.6-1.1-1.3-1.3-2.1
				c-0.2-0.9,0.1-1.7,0.8-2.5s1.5-1.3,2.5-1.6c0.2,0,0.5-0.1,0.7-0.1c0.1,0.4,0.2,0.7,0.3,1.1c-0.4,0.2-0.5,0.6-0.4,1
				c0,0.1,0.1,0.3,0.2,0.4c0.2,0.2,0.3,0.3,0.5,0.5c2.4,2.1,5,4,7.7,5.8c0.2,0.2,0.4,0.3,0.6,0.3c0.2,0.1,0.4,0.1,0.7,0.1
				s0.5,0.1,0.5,0.3c0.1,0.1,0,0.3-0.1,0.4c-0.1,0.1-0.3,0.3-0.5,0.3C-732.2,600.8-734,601.4-735.7,602z M-738.9,590.8
				c-0.1-0.3-0.2-0.7-0.3-1c0.6-0.1,1.2,0,1.7,0.2c0.5,0.3,0.9,0.7,1.1,1.2c0.1,0.4,0.1,0.8,0,1.3c-0.1,0.5-0.4,0.9-0.8,1.3
				c-0.3-0.2-0.5-0.4-0.8-0.6c0.1-0.1,0.1-0.2,0.2-0.3c0.1-0.1,0.1-0.2,0.2-0.4c0.1-0.2,0.1-0.4,0-0.8c-0.1-0.3-0.3-0.5-0.5-0.6
				C-738.3,590.9-738.6,590.8-738.9,590.8z M-733.6,596.5c-0.3-0.2-0.6-0.4-0.9-0.6c0-0.2,0.1-0.3,0.1-0.5c0-0.1-0.1-0.3-0.1-0.4
				c-0.1-0.2-0.2-0.4-0.5-0.6c-0.2-0.2-0.4-0.3-0.4-0.4c-0.1-0.2,0-0.4,0.3-0.6c0.2-0.2,0.5-0.4,0.7-0.4c0.3-0.1,0.5-0.1,0.7,0.1
				c0.2,0.2,0.3,0.4,0.4,0.6c0.2,0.4,0.2,0.9,0.1,1.3C-733.1,595.4-733.3,595.9-733.6,596.5z"/>
			<path id="XMLID_398_" d="M-715.3,591.4c0.2,0.3,0.4,0.5,0.5,0.8c-2.1,1.4-4,1.8-5.7,1.4c-1.7-0.4-3-1.4-3.8-3
				c-0.9-1.7-1.1-3.4-0.7-5.1s1.4-3,3-4.1c0.2,0.3,0.4,0.5,0.5,0.8c-0.3,0.3-0.5,0.7-0.5,1s0.1,0.7,0.3,1c1.4,2.2,2.9,4.5,4.3,6.7
				c0.2,0.3,0.5,0.6,0.9,0.7C-716.2,591.7-715.8,591.6-715.3,591.4z M-720.8,581.7c-0.2-0.3-0.4-0.5-0.6-0.8
				c0.2-0.1,0.7-0.3,1.4-0.6c0.7-0.2,1.2-0.4,1.3-0.5c0.2-0.1,0.3-0.3,0.2-0.6c0-0.3,0-0.4,0.2-0.6c0.2-0.2,0.4-0.2,0.5-0.2
				c0.1,0.1,0.3,0.1,0.3,0.2c0.8,1,1.6,2,2.4,3.1c0.1,0.1,0.2,0.3,0.1,0.4c0,0.2-0.1,0.3-0.3,0.5c-0.2,0.1-0.3,0.2-0.5,0.2
				c-0.2,0-0.5-0.2-0.9-0.5s-1-0.6-1.9-0.8C-719.1,581.3-719.9,581.3-720.8,581.7z M-712.5,585.8c0.2-0.1,0.3-0.2,0.5-0.2
				s0.3,0.1,0.4,0.2c0.4,0.5,0.4,1.5-0.1,2.8c-0.5,1.3-1.2,2.3-2.2,3c-0.2-0.3-0.4-0.5-0.6-0.8c0.7-0.7,1.2-1.4,1.5-2.1
				c0.3-0.7,0.4-1.3,0.3-1.7c-0.1-0.4-0.2-0.7-0.1-0.8C-712.8,586.1-712.7,585.9-712.5,585.8z"/>
			<path id="XMLID_395_" d="M-712,573.1c0.2,0.2,0.5,0.5,0.7,0.7c-0.2,0.4-0.3,0.7-0.3,0.9c0,0.3,0.2,0.5,0.3,0.7c2,2.1,4,4.2,6,6.3
				c0.2,0.2,0.4,0.3,0.7,0.4c0.2,0,0.6-0.1,1.1-0.4c0.2,0.2,0.5,0.5,0.7,0.7c-1.9,1.7-3.7,2.4-5.5,2.3c-1.8-0.1-3.2-0.9-4.3-2.2
				c-1.1-1.4-1.6-2.9-1.6-4.5C-714.1,576.2-713.4,574.7-712,573.1z M-702,581.6c-0.2-0.2-0.5-0.5-0.7-0.7c0.3-0.4,0.4-0.8,0.3-1
				c0-0.3-0.2-0.5-0.4-0.7c-2.1-2-4.2-4-6.3-6c-0.2-0.2-0.4-0.3-0.7-0.4c-0.2,0-0.5,0.1-1,0.3c-0.2-0.2-0.5-0.5-0.7-0.7
				c1.6-1.4,3.1-2.1,4.8-2.2c1.7-0.1,3.2,0.4,4.6,1.5s2.2,2.5,2.3,4.3C-699.6,577.8-700.4,579.7-702,581.6z"/>
			<path id="XMLID_393_" d="M-693.8,571.7c-0.4,0.6-1,1.1-1.6,1.3c-0.6,0.2-1.1,0.2-1.5-0.1c-0.4-0.3-0.6-0.8-0.6-1.4
				s0.2-1.2,0.7-1.8c0.4-0.6,0.9-1,1.5-1.3c0.6-0.3,1.1-0.2,1.5,0c0.4,0.3,0.6,0.7,0.6,1.3C-693.1,570.4-693.4,571-693.8,571.7z"/>
		</g>
	</g>
	<path id="XMLID_85_" class="st2" d="M-671.6,584.6c-6.5-0.2-13.1-0.5-19.6-0.7c1.8-2.2,3.7-4.8,5.5-7.8c2.3-3.7,4.1-7.1,5.5-10.3
		c1.5,3.7,3.2,7.4,5,11.3C-674,579.8-672.8,582.2-671.6,584.6z"/>
	<path id="XMLID_49_" class="st2" d="M-679,558.7c2.9,6.3,5.9,12.6,8.8,18.9c-0.1-16.4-0.1-32.8-0.2-49.2c-4.5,4.8-9,9.6-13.5,14.4
		c-4.5-4.8-9-9.6-13.5-14.4c0,7.9-0.1,15.8-0.1,23.7C-691.4,554.4-685.2,556.6-679,558.7z"/>
</g>
</svg>
